<svg width="352" height="54" viewBox="0 0 352 54" fill="none" xmlns="http://www.w3.org/2000/svg">
<g filter="url(#filter0_d_2544_436)">
<path fill-rule="evenodd" clip-rule="evenodd" d="M153.205 36.6684C153.225 35.5588 153.236 34.3373 153.236 33.0072V21.7437L153.215 21.6282C152.406 19.4616 151.226 17.8375 149.707 16.7944C148.191 15.7584 146.463 15.2334 144.577 15.2334C143.007 15.2334 141.529 15.5204 140.195 16.0874C138.857 16.6544 137.695 17.491 136.738 18.569C135.788 19.6436 135.037 20.9736 134.503 22.5277C133.971 24.0748 133.7 25.8529 133.7 27.813C133.7 30.0041 133.944 32.0727 134.42 33.9628C134.9 35.8598 135.617 37.5364 136.553 38.94C137.493 40.3541 138.679 41.4741 140.075 42.2687C141.474 43.0702 143.11 43.4727 144.93 43.4727C145.88 43.4727 146.785 43.3572 147.615 43.1332C148.445 42.9057 149.21 42.6117 149.892 42.2652C150.585 41.9116 151.195 41.5196 151.727 41.0961C152.251 40.6691 152.697 40.2421 153.04 39.829L153.112 39.745L153.116 39.6365C153.157 38.7685 153.184 37.7744 153.205 36.6684ZM158.112 41.9782C158.451 42.6643 159.254 43.9838 160.44 44.1098C160.618 44.1308 160.591 44.4914 160.591 44.4914H158.544H156.5H153.236V42.0832L153.081 42.1952V42.1847L152.515 42.5488C151.535 43.1753 150.287 43.7528 148.795 44.2673C147.314 44.7749 145.568 45.0374 143.6 45.0374C141.306 45.0374 139.19 44.6664 137.325 43.9383C135.459 43.2138 133.851 42.1602 132.538 40.8092C131.224 39.4616 130.199 37.799 129.489 35.8669C128.776 33.9314 128.416 31.7192 128.416 29.2901C128.416 27.071 128.803 24.9849 129.575 23.0913C130.34 21.1977 131.437 19.5282 132.819 18.1386C134.201 16.7455 135.871 15.6395 137.774 14.8554C139.68 14.0714 141.8 13.6724 144.073 13.6724C144.862 13.6724 145.661 13.7389 146.446 13.8789C147.238 14.0154 148.017 14.2149 148.768 14.4704C149.515 14.7224 150.235 15.041 150.904 15.4155C151.576 15.783 152.183 16.2065 152.714 16.6755L153.236 17.1306V11.4778C153.236 9.7697 153.215 8.26113 153.174 6.98007C153.136 5.70251 153.078 4.58595 152.999 3.65841C152.917 2.73086 152.828 1.93983 152.728 1.3098C152.649 0.812773 152.563 0.371752 152.471 -0.00976562H158.544C158.451 0.368252 158.359 0.809273 158.276 1.3028C158.163 1.93633 158.074 2.73086 158.005 3.66191C157.933 4.58945 157.875 5.70251 157.827 6.98007C157.776 8.25763 157.748 9.7697 157.748 11.4778V33.0073C157.748 34.7119 157.776 36.2275 157.827 37.5015C157.875 38.7791 157.933 39.8956 158.005 40.8197C158.033 41.2432 158.071 41.6212 158.112 41.9782ZM38.9422 34.6084C38.903 33.6123 38.839 32.7347 38.7572 31.9995C38.6754 31.2642 38.5794 30.6239 38.4763 30.0919C38.3909 29.665 38.2949 29.2584 38.1882 28.8789H44.757C44.6574 29.2347 44.5649 29.6345 44.476 30.075C44.3622 30.6374 44.2626 31.3083 44.1772 32.0706C44.099 32.8364 44.035 33.7444 43.9959 34.7677C43.9532 35.7909 43.9319 36.9904 43.9319 38.3321V39.5316C43.9319 39.7213 43.9105 39.928 43.8643 40.1381C43.8287 40.3075 43.7434 40.443 43.6331 40.5413C42.7298 41.1884 41.7375 41.7949 40.6848 42.3404C39.6285 42.8859 38.4763 43.3637 37.2493 43.7669C36.0259 44.1701 34.6851 44.4852 33.2696 44.702C31.8541 44.9223 30.3071 45.0375 28.6747 45.0375C25.008 45.0375 21.6187 44.5123 18.5992 43.4924C15.5834 42.4658 12.9658 40.9953 10.8106 39.125C8.6554 37.2547 6.96253 34.9744 5.78178 32.3485C4.59748 29.7192 4 26.7579 4 23.5424C4 21.7263 4.2454 19.917 4.73974 18.1551C5.22698 16.4 5.95605 14.7025 6.89851 13.1134C7.84453 11.5277 9.02171 10.047 10.4052 8.72219C11.7886 7.39399 13.3926 6.22843 15.1708 5.24923C16.9455 4.27341 18.9335 3.50428 21.071 2.95877C23.2155 2.41326 25.5663 2.13543 28.0594 2.13543C29.0303 2.13543 30.0297 2.17947 31.0362 2.26757C32.0462 2.35227 33.0598 2.47764 34.0485 2.64027C35.0372 2.8063 36.0045 3.00282 36.9185 3.23661C37.7863 3.45346 38.6185 3.69741 39.4045 3.96847L41.1863 8.57988C40.4999 8.05131 39.7352 7.54308 38.903 7.07889C37.8503 6.48933 36.7087 5.96754 35.5102 5.53384C34.3116 5.10353 33.042 4.75793 31.7261 4.51398C30.4138 4.26664 29.0659 4.14127 27.7215 4.14127C25.1182 4.14127 22.6927 4.5377 20.5197 5.31699C18.3396 6.09629 16.4405 7.2483 14.8685 8.73574C13.2966 10.2198 12.0589 12.0664 11.1876 14.2213C10.3198 16.3729 9.87882 18.8463 9.87882 21.584C9.87882 24.5826 10.2949 27.405 11.12 29.9733C11.9451 32.5552 13.197 34.8253 14.8294 36.7193C16.4689 38.6167 18.5459 40.1211 21.007 41.202C23.4609 42.2761 26.363 42.8216 29.6278 42.8216C31.0717 42.8216 32.3841 42.7131 33.5221 42.4963C34.6673 42.2761 35.6489 42.0016 36.4455 41.6696C37.2564 41.3375 37.8859 40.9614 38.3091 40.5514C38.7786 40.111 39.0026 39.6976 39.0026 39.2944V38.1559C39.0026 36.7939 38.9813 35.5978 38.9422 34.6084ZM75.186 39.9379C76.0681 38.8174 76.7654 37.4349 77.257 35.8332C77.7486 34.2387 77.9926 32.4145 77.9926 30.4034C77.9926 28.1554 77.759 26.0402 77.2919 24.1118C76.8247 22.1725 76.1169 20.4739 75.186 19.0518C74.2517 17.6226 73.0558 16.4842 71.6333 15.6798C70.2074 14.8718 68.5269 14.4624 66.6338 14.4624C65.1694 14.4624 63.8132 14.7569 62.5895 15.3422C61.3692 15.9312 60.2954 16.7858 59.3959 17.8955C58.4998 18.998 57.7991 20.3626 57.304 21.9571C56.8194 23.5408 56.5683 25.3615 56.5683 27.3689C56.5683 29.617 56.8089 31.7357 57.2831 33.6749C57.7642 35.6249 58.4789 37.3451 59.4203 38.7815C60.3651 40.2359 61.561 41.3851 62.973 42.2003C64.392 43.0227 66.055 43.4356 67.9272 43.4356C69.3915 43.4356 70.7617 43.134 71.989 42.5378C73.2232 41.9417 74.297 41.0655 75.186 39.9379ZM73.5753 14.0029C75.5208 14.7571 77.2396 15.8452 78.6865 17.2313C80.1299 18.6211 81.2839 20.3341 82.1171 22.3236C82.9469 24.3202 83.3688 26.5898 83.3688 29.0713C83.3688 31.1506 83.0097 33.176 82.3054 35.09C81.6046 37.0005 80.5517 38.7171 79.1885 40.1823C77.8183 41.651 76.1204 42.8397 74.1332 43.7159C72.1459 44.5922 69.8274 45.0375 67.2369 45.0375C65.0405 45.0375 62.9416 44.6604 61.0031 43.9135C59.0647 43.1665 57.3493 42.0856 55.9059 40.6958C54.4625 39.3096 53.3016 37.6002 52.4648 35.6179C51.6211 33.6356 51.1922 31.3696 51.1922 28.8846C51.1922 26.6114 51.6141 24.4711 52.4334 22.5283C53.2527 20.5855 54.3963 18.8725 55.8327 17.4468C57.2726 16.014 58.9949 14.8827 60.9474 14.0747C62.9068 13.2703 65.0405 12.8609 67.2997 12.8609C69.5136 12.8609 71.6264 13.2452 73.5753 14.0029ZM113.724 35.8332C113.229 37.4349 112.535 38.8174 111.649 39.9379C110.76 41.0655 109.686 41.9417 108.456 42.5378C107.225 43.134 105.858 43.4356 104.394 43.4356C102.522 43.4356 100.855 43.0227 99.4398 42.2003C98.0277 41.3851 96.8319 40.2359 95.8871 38.7815C94.9457 37.3451 94.2275 35.6249 93.7499 33.6749C93.2757 31.7357 93.0317 29.617 93.0317 27.3689C93.0317 25.3615 93.2827 23.5408 93.7708 21.9571C94.2624 20.3626 94.9666 18.998 95.8627 17.8955C96.7622 16.7858 97.8325 15.9312 99.0563 15.3422C100.277 14.7569 101.636 14.4624 103.101 14.4624C104.99 14.4624 106.674 14.8718 108.1 15.6798C109.519 16.4842 110.718 17.6226 111.653 19.0518C112.584 20.4739 113.291 22.1725 113.759 24.1118C114.226 26.0402 114.459 28.1554 114.459 30.4034C114.459 32.4145 114.212 34.2387 113.724 35.8332ZM115.153 17.2313C113.706 15.8452 111.988 14.7571 110.039 14.0029C108.093 13.2452 105.977 12.8609 103.763 12.8609C101.507 12.8609 99.3735 13.2703 97.4141 14.0747C95.4582 14.8827 93.7394 16.014 92.2995 17.4468C90.863 18.8725 89.716 20.5855 88.8967 22.5283C88.0774 24.4711 87.659 26.6114 87.659 28.8846C87.659 31.3696 88.0843 33.6356 88.9281 35.6179C89.7683 37.6002 90.9258 39.3096 92.3727 40.6958C93.8161 42.0856 95.5314 43.1665 97.4699 43.9135C99.4084 44.6604 101.504 45.0375 103.704 45.0375C106.291 45.0375 108.613 44.5922 110.6 43.7159C112.587 42.8397 114.285 41.651 115.652 40.1823C117.018 38.7171 118.068 37.0005 118.772 35.09C119.476 33.176 119.836 31.1506 119.836 29.0713C119.836 26.5898 119.414 24.3202 118.584 22.3236C117.751 20.3341 116.597 18.6211 115.153 17.2313ZM261.809 39.9379C262.691 38.8174 263.389 37.4349 263.88 35.8332C264.372 34.2387 264.62 32.4109 264.62 30.4034C264.62 28.1554 264.386 26.0402 263.919 24.1118C263.448 22.1725 262.74 20.4739 261.809 19.0518C260.875 17.6226 259.679 16.4842 258.256 15.6798C256.833 14.8718 255.149 14.4624 253.259 14.4624C251.795 14.4624 250.435 14.7569 249.211 15.3422C247.991 15.9312 246.917 16.7858 246.017 17.8955C245.125 18.998 244.42 20.3626 243.929 21.9571C243.44 23.5408 243.189 25.3615 243.189 27.3689C243.189 29.617 243.433 31.7357 243.908 33.6749C244.385 35.6249 245.104 37.3451 246.045 38.7815C246.987 40.2359 248.186 41.3851 249.595 42.2003C251.014 43.0227 252.677 43.4356 254.55 43.4356C256.014 43.4356 257.384 43.134 258.612 42.5378C259.846 41.9417 260.92 41.0655 261.809 39.9379ZM260.198 14.0029C262.144 14.7571 263.866 15.8452 265.313 17.2313C266.757 18.6211 267.908 20.3341 268.741 22.3236C269.574 24.3202 269.993 26.5898 269.993 29.0713C269.993 31.1506 269.634 33.176 268.929 35.09C268.228 37.0005 267.175 38.7171 265.812 40.1823C264.442 41.651 262.744 42.8397 260.756 43.7159C258.769 44.5922 256.45 45.0375 253.859 45.0375C251.662 45.0375 249.567 44.6604 247.625 43.9135C245.686 43.1665 243.974 42.0856 242.527 40.6958C241.083 39.3096 239.926 37.6002 239.085 35.6179C238.242 33.6356 237.816 31.3696 237.816 28.8846C237.816 26.6114 238.235 24.4711 239.054 22.5283C239.873 20.5855 241.021 18.8725 242.454 17.4468C243.894 16.014 245.616 14.8827 247.572 14.0747C249.532 13.2703 251.666 12.8609 253.922 12.8609C256.136 12.8609 258.249 13.2452 260.198 14.0029ZM302.493 35.8332C302.001 37.4349 301.304 38.8174 300.418 39.9379C299.533 41.0655 298.459 41.9417 297.225 42.5378C295.997 43.134 294.627 43.4356 293.163 43.4356C291.291 43.4356 289.628 43.0227 288.209 42.2003C286.797 41.3851 285.601 40.2359 284.66 38.7815C283.715 37.3451 283 35.6249 282.519 33.6749C282.045 31.7357 281.804 29.617 281.804 27.3689C281.804 25.3615 282.055 23.5408 282.54 21.9571C283.035 20.3626 283.736 18.998 284.632 17.8955C285.531 16.7858 286.605 15.9312 287.825 15.3422C289.049 14.7569 290.405 14.4624 291.87 14.4624C293.759 14.4624 295.443 14.8718 296.869 15.6798C298.288 16.4842 299.487 17.6226 300.422 19.0518C301.353 20.4739 302.06 22.1725 302.528 24.1118C302.995 26.0402 303.228 28.1554 303.228 30.4034C303.228 32.4109 302.984 34.2387 302.493 35.8332ZM303.922 17.2313C302.479 15.8452 300.757 14.7571 298.811 14.0029C296.862 13.2452 294.746 12.8609 292.535 12.8609C290.28 12.8609 288.146 13.2703 286.187 14.0747C284.231 14.8827 282.508 16.014 281.069 17.4468C279.632 18.8725 278.489 20.5855 277.666 22.5283C276.85 24.4711 276.428 26.6114 276.428 28.8846C276.428 31.3696 276.857 33.6356 277.697 35.6179C278.541 37.6002 279.698 39.3096 281.142 40.6958C282.585 42.0856 284.3 43.1665 286.239 43.9135C288.181 44.6604 290.276 45.0375 292.473 45.0375C295.063 45.0375 297.382 44.5922 299.369 43.7159C301.356 42.8397 303.054 41.651 304.424 40.1823C305.788 38.7171 306.84 37.0005 307.541 35.09C308.245 33.176 308.605 31.1506 308.605 29.0713C308.605 26.5898 308.183 24.3202 307.353 22.3236C306.52 20.3341 305.366 18.6211 303.922 17.2313ZM339.859 33.0072C339.859 34.3373 339.849 35.5588 339.829 36.6684C339.808 37.7744 339.781 38.7685 339.743 39.6365L339.736 39.745L339.664 39.829C339.321 40.2421 338.875 40.6691 338.351 41.0961C337.819 41.5196 337.209 41.9116 336.516 42.2652C335.834 42.6117 335.069 42.9057 334.239 43.1332C333.409 43.3572 332.504 43.4727 331.554 43.4727C329.733 43.4727 328.098 43.0702 326.699 42.2687C325.303 41.4741 324.117 40.3541 323.174 38.94C322.241 37.5364 321.524 35.8598 321.044 33.9628C320.568 32.0727 320.324 30.0041 320.324 27.813C320.324 25.8529 320.595 24.0748 321.126 22.5277C321.658 20.9736 322.412 19.6436 323.362 18.569C324.319 17.491 325.485 16.6544 326.819 16.0874C328.153 15.5204 329.631 15.2334 331.201 15.2334C333.087 15.2334 334.815 15.7584 336.331 16.7944C337.85 17.8375 339.03 19.4616 339.839 21.6282L339.859 21.7437V33.0072ZM347.064 44.1098C345.874 43.9838 345.075 42.6643 344.736 41.9782C344.694 41.6212 344.657 41.2432 344.629 40.8197C344.557 39.8956 344.499 38.7791 344.451 37.5015C344.4 36.2275 344.372 34.7119 344.372 33.0073V11.4778C344.372 9.7697 344.4 8.25763 344.451 6.98007C344.499 5.70251 344.557 4.58945 344.629 3.66191C344.698 2.73086 344.787 1.93633 344.9 1.3028C344.983 0.809273 345.075 0.368252 345.171 -0.00976562H339.095C339.187 0.371752 339.273 0.812773 339.352 1.3098C339.451 1.93983 339.541 2.73086 339.623 3.65841C339.702 4.58595 339.76 5.70251 339.798 6.98007C339.839 8.26113 339.859 9.7697 339.859 11.4778V17.1306L339.342 16.6755C338.803 16.2065 338.2 15.783 337.528 15.4155C336.859 15.041 336.139 14.7224 335.391 14.4704C334.64 14.2149 333.862 14.0154 333.07 13.8789C332.285 13.7389 331.486 13.6724 330.697 13.6724C328.424 13.6724 326.304 14.0714 324.398 14.8554C322.495 15.6395 320.825 16.7455 319.443 18.1386C318.061 19.5282 316.964 21.1977 316.199 23.0913C315.427 24.9849 315.04 27.071 315.04 29.2901C315.04 31.7192 315.4 33.9314 316.113 35.8669C316.823 37.799 317.848 39.4616 319.162 40.8092C320.475 42.1602 322.083 43.2138 323.949 43.9383C325.814 44.6664 327.93 45.0374 330.224 45.0374C332.192 45.0374 333.938 44.7749 335.419 44.2673C336.91 43.7528 338.159 43.1753 339.139 42.5488L339.705 42.1847V42.1952L339.859 42.0832V44.4914H343.124H345.171H347.215C347.215 44.4914 347.242 44.1308 347.064 44.1098ZM229.153 40.9326C229.572 41.5981 230.273 42.4342 231.228 42.5278C231.41 42.5479 231.379 42.8924 231.379 42.8924H229.813H227.285H226.368H223.937H222.271C222.271 42.8924 222.244 42.5479 222.422 42.5278C223.15 42.4576 223.727 41.9459 224.15 41.4175C224.157 41.3279 224.166 41.2402 224.176 41.1521C224.202 40.8954 224.229 40.636 224.229 40.3173C224.229 40.0598 224.218 39.7989 224.201 39.5314C224.187 39.3079 224.162 39.0652 224.136 38.8075C224.132 38.7605 224.127 38.7131 224.122 38.6652L220.602 9.97111L204.502 42.7486L203.056 42.5713L187.292 10.64L186.835 9.71026L186.694 10.7303C186.073 15.3186 185.52 19.5726 185.07 23.3717C184.871 25.0305 184.675 26.6759 184.483 28.3213C184.284 29.9667 184.112 31.5017 183.961 32.9264C183.81 34.3544 183.686 35.6118 183.6 36.6987C183.507 37.789 183.466 38.605 183.466 39.13C183.466 39.8123 183.483 40.3842 183.518 40.8858C183.546 41.2789 183.576 41.6036 183.605 41.9045L183.614 41.9995C183.947 42.2737 184.332 42.481 184.778 42.5278C184.957 42.5479 184.929 42.8924 184.929 42.8924H183.731H181.852H180.832H179.238H177.755C177.755 42.8924 177.727 42.5479 177.906 42.5278C178.916 42.4275 179.647 41.4978 180.056 40.8223C180.162 40.4109 180.255 39.9594 180.334 39.4645L180.372 39.2136C180.421 38.876 180.471 38.5282 180.523 38.1702C180.668 37.1666 180.825 36.0831 180.99 34.9196C181.061 34.4146 181.134 33.9022 181.207 33.3822C181.378 32.1701 181.555 30.9175 181.735 29.6255L181.789 29.2336C182.026 27.5089 182.268 25.7472 182.505 23.9536C182.769 22.0206 183.016 20.1144 183.253 18.2382L183.947 12.8138C184.17 11.0747 184.369 9.48285 184.548 8.03811C184.723 6.59337 184.871 5.33926 184.988 4.27243C185.087 3.37282 185.163 2.66048 185.214 2.13543H188.116L204.804 35.8928L205.089 36.468L221.924 2.13543H223.981L228.319 36.1369C228.443 37.2171 228.58 38.1535 228.724 38.926C228.862 39.6752 229.006 40.3507 229.153 40.9259V40.9326Z" fill="white"/>
</g>
<defs>
<filter id="filter0_d_2544_436" x="0" y="-0.00976562" width="351.217" height="53.0469" filterUnits="userSpaceOnUse" color-interpolation-filters="sRGB">
<feFlood flood-opacity="0" result="BackgroundImageFix"/>
<feColorMatrix in="SourceAlpha" type="matrix" values="0 0 0 0 0 0 0 0 0 0 0 0 0 0 0 0 0 0 127 0" result="hardAlpha"/>
<feOffset dy="4"/>
<feGaussianBlur stdDeviation="2"/>
<feComposite in2="hardAlpha" operator="out"/>
<feColorMatrix type="matrix" values="0 0 0 0 0 0 0 0 0 0 0 0 0 0 0 0 0 0 0.25 0"/>
<feBlend mode="normal" in2="BackgroundImageFix" result="effect1_dropShadow_2544_436"/>
<feBlend mode="normal" in="SourceGraphic" in2="effect1_dropShadow_2544_436" result="shape"/>
</filter>
</defs>
</svg>
